<?xml version="1.0" standalone="no"?>
<!DOCTYPE svg PUBLIC "-//W3C//DTD SVG 20010904//EN"
 "http://www.w3.org/TR/2001/REC-SVG-20010904/DTD/svg10.dtd">
<svg version="1.0" xmlns="http://www.w3.org/2000/svg"
 width="148.000000pt" height="148.000000pt" viewBox="0 0 148.000000 148.000000"
 preserveAspectRatio="xMidYMid meet">

<g transform="translate(0.000000,148.000000) scale(0.100000,-0.100000)"
fill="#000000" stroke="none">
<path d="M144 1429 c-46 -13 -91 -69 -99 -121 -3 -24 -5 -296 -3 -605 3 -549
3 -562 24 -589 11 -15 33 -37 48 -48 27 -21 37 -21 626 -21 589 0 599 0 626
21 15 11 37 33 48 48 21 27 21 37 21 626 0 589 0 599 -21 626 -11 15 -33 37
-48 48 -27 21 -39 21 -609 23 -334 1 -595 -2 -613 -8z m1091 -343 c28 -28 40
-66 31 -98 -3 -13 -153 -170 -333 -350 -319 -318 -330 -328 -368 -328 -36 0
-47 8 -192 152 -85 84 -156 163 -160 176 -15 62 33 122 98 122 40 0 47 -5 148
-105 l106 -104 280 279 c280 279 281 280 323 280 32 0 49 -6 67 -24z"/>
</g>
</svg>
